<svg xmlns="http://www.w3.org/2000/svg" viewBox="0 0 25.41 220.28"><defs><style>.cls-1{fill:#213843;}</style></defs><title>2Artboard 590</title><g id="Layer_1" data-name="Layer 1"><path class="cls-1" d="M2.28.92A.9.9,0,0,1,3.19,0H6.55a.93.93,0,0,1,.92.92v10.3L17.09.38A.9.9,0,0,1,17.81,0h3.82a.81.81,0,0,1,.61,1.38l-10,11.22L23,25.39a.84.84,0,0,1-.69,1.33H18.12a.86.86,0,0,1-.69-.26l-10-12.3V25.81a.93.93,0,0,1-.92.91H3.19a.9.9,0,0,1-.91-.91Z"/><polygon class="cls-1" points="23.51 58.59 18.11 51.49 12.7 44.39 7.3 51.49 1.9 58.59 11.21 58.59 11.21 220.28 14.2 220.28 14.2 58.59 23.51 58.59"/></g></svg>