<svg xmlns="http://www.w3.org/2000/svg" viewBox="0 0 101.84 194.45"><defs><style>.cls-1{fill:#8690a4;}.cls-2{fill:#213843;}</style></defs><title>1Artboard 78</title><g id="Layer_1" data-name="Layer 1"><path class="cls-1" d="M19,177.51h-2.4L14,173.3l-.9.64v3.57H10.94v-10h2.11v4.57l.84-1.17,2.71-3.4H19l-3.49,4.42Z"/><path class="cls-1" d="M20.23,177.51v-10h2.12v10Z"/><path class="cls-1" d="M33.73,177.51H31L26.69,170h-.06c.09,1.34.13,2.29.13,2.86v4.7H24.87v-10h2.67L31.88,175h.05c-.07-1.3-.1-2.21-.1-2.75v-4.73h1.9Z"/><path class="cls-1" d="M40,171.9h4v5.18a10.64,10.64,0,0,1-1.82.44,11.14,11.14,0,0,1-1.74.13A4.42,4.42,0,0,1,37,176.32a5.52,5.52,0,0,1-1.2-3.82,5,5,0,0,1,1.39-3.77A5.26,5.26,0,0,1,41,167.37a7.41,7.41,0,0,1,3,.62l-.7,1.69a5.09,5.09,0,0,0-2.28-.54,2.8,2.8,0,0,0-2.2.92,3.57,3.57,0,0,0-.82,2.48,4,4,0,0,0,.66,2.49,2.31,2.31,0,0,0,1.94.85,7,7,0,0,0,1.35-.13v-2.09H40Z"/><path class="cls-1" d="M50,167.52h3.11a6,6,0,0,1,3.09.6,2.11,2.11,0,0,1,1,1.93,2.46,2.46,0,0,1-.42,1.47,1.69,1.69,0,0,1-1.12.69v.06a2.21,2.21,0,0,1,1.37.8,2.9,2.9,0,0,1-.56,3.68,4.3,4.3,0,0,1-2.69.76H50Zm2.12,4h1.23a2.23,2.23,0,0,0,1.25-.27,1,1,0,0,0,.39-.88.89.89,0,0,0-.42-.83,2.79,2.79,0,0,0-1.33-.25H52.14Zm0,1.68v2.6h1.38a2.09,2.09,0,0,0,1.3-.33,1.28,1.28,0,0,0,.41-1c0-.83-.59-1.24-1.77-1.24Z"/><path class="cls-1" d="M65.19,177.51H59.43v-10h5.76v1.73H61.55v2.2h3.38v1.73H61.55v2.58h3.64Z"/><path class="cls-1" d="M67.27,177.51v-10h2.12v10Z"/><path class="cls-1" d="M80.77,177.51H78.08L73.73,170h-.06c.09,1.34.13,2.29.13,2.86v4.7H71.91v-10h2.67L78.92,175h0c-.07-1.3-.11-2.21-.11-2.75v-4.73h1.91Z"/><path class="cls-1" d="M87.08,171.9h4v5.18a10.86,10.86,0,0,1-1.82.44,11.14,11.14,0,0,1-1.74.13A4.4,4.4,0,0,1,84,176.32a5.52,5.52,0,0,1-1.2-3.82,5,5,0,0,1,1.39-3.77,5.26,5.26,0,0,1,3.84-1.36,7.41,7.41,0,0,1,3,.62l-.7,1.69a5.09,5.09,0,0,0-2.28-.54,2.8,2.8,0,0,0-2.2.92,3.57,3.57,0,0,0-.83,2.48,4,4,0,0,0,.67,2.49,2.3,2.3,0,0,0,1.94.85,6.83,6.83,0,0,0,1.34-.13v-2.09H87.08Z"/><path class="cls-1" d="M11,194.31H8.84v-8.23H6.13v-1.76h7.54v1.76H11Z"/><path class="cls-1" d="M23.4,194.31H21.29V190h-4v4.31H15.21v-10h2.12v3.91h4v-3.91H23.4Z"/><path class="cls-1" d="M31.68,194.31H25.92v-10h5.76v1.73H28v2.2h3.39V190H28v2.58h3.64Z"/><path class="cls-1" d="M45.59,194.31H43.48V190h-4v4.31H37.4v-10h2.12v3.91h4v-3.91h2.11Z"/><path class="cls-1" d="M48.11,194.31v-10h2.12v10Z"/><path class="cls-1" d="M56.54,188.7h4v5.18a10.86,10.86,0,0,1-1.82.44,11.14,11.14,0,0,1-1.74.13,4.4,4.4,0,0,1-3.45-1.33,5.52,5.52,0,0,1-1.2-3.82,5,5,0,0,1,1.39-3.77,5.22,5.22,0,0,1,3.84-1.36,7.41,7.41,0,0,1,3,.62l-.7,1.69a5.09,5.09,0,0,0-2.28-.54,2.83,2.83,0,0,0-2.2.92,3.59,3.59,0,0,0-.83,2.48,4,4,0,0,0,.67,2.49,2.3,2.3,0,0,0,1.94.85,7,7,0,0,0,1.35-.13v-2.09h-1.9Z"/><path class="cls-1" d="M71.07,194.31H69V190H65v4.31H62.88v-10H65v3.91h4v-3.91h2.11Z"/><path class="cls-1" d="M79.35,194.31H73.6v-10h5.75v1.73H75.72v2.2H79.1V190H75.72v2.58h3.63Z"/><path class="cls-1" d="M87.34,191.54a2.58,2.58,0,0,1-1,2.13,4.22,4.22,0,0,1-2.71.78,6.4,6.4,0,0,1-2.83-.6v-2a11.44,11.44,0,0,0,1.72.63,4.73,4.73,0,0,0,1.28.19,1.82,1.82,0,0,0,1.07-.27.93.93,0,0,0,.37-.79.85.85,0,0,0-.16-.52,1.81,1.81,0,0,0-.49-.45,12.78,12.78,0,0,0-1.29-.67,6.62,6.62,0,0,1-1.38-.83,3.09,3.09,0,0,1-.73-.92,2.65,2.65,0,0,1-.27-1.23,2.59,2.59,0,0,1,.9-2.09,3.77,3.77,0,0,1,2.48-.76,6,6,0,0,1,1.49.19,9.41,9.41,0,0,1,1.48.52l-.68,1.64a10.42,10.42,0,0,0-1.33-.45,4.1,4.1,0,0,0-1-.13,1.35,1.35,0,0,0-.92.28A.93.93,0,0,0,83,187a.88.88,0,0,0,.13.49,1.57,1.57,0,0,0,.41.4,13.47,13.47,0,0,0,1.35.7,5.44,5.44,0,0,1,1.92,1.35A2.62,2.62,0,0,1,87.34,191.54Z"/><path class="cls-1" d="M93,194.31H90.88v-8.23H88.17v-1.76h7.55v1.76H93Z"/><path class="cls-2" d="M90.05,150.36H11.79A11.8,11.8,0,0,1,0,138.57V11.79A11.8,11.8,0,0,1,11.79,0H90.05a11.8,11.8,0,0,1,11.79,11.79V138.57A11.8,11.8,0,0,1,90.05,150.36ZM11.79,2A9.8,9.8,0,0,0,2,11.79V138.57a9.8,9.8,0,0,0,9.79,9.79H90.05a9.8,9.8,0,0,0,9.79-9.79V11.79A9.8,9.8,0,0,0,90.05,2Z"/><path class="cls-2" d="M20.45,21.69a.91.91,0,0,1,.92-.92h3.36a.93.93,0,0,1,.91.92V32l9.62-10.84a.92.92,0,0,1,.73-.38h3.82a.81.81,0,0,1,.61,1.37l-10,11.23L41.14,46.16a.83.83,0,0,1-.68,1.33H36.29a.82.82,0,0,1-.68-.26l-10-12.3V46.58a.93.93,0,0,1-.91.91H21.37a.9.9,0,0,1-.92-.91Z"/><polygon class="cls-2" points="45.33 101.62 39.34 93.74 33.36 85.86 27.37 93.74 21.38 101.62 31.7 101.62 31.7 119.55 35.01 119.55 35.01 101.62 45.33 101.62"/><rect class="cls-2" x="21.48" y="77.03" width="23.75" height="2.76"/></g></svg>