<svg xmlns="http://www.w3.org/2000/svg" viewBox="0 0 101.84 194.45"><defs><style>.cls-1{fill:#8690a4;}.cls-2{fill:#213843;}</style></defs><title>1Artboard 79</title><g id="Layer_1" data-name="Layer 1"><path class="cls-1" d="M21.57,177.51l-.73-2.38H17.2l-.73,2.38H14.19l3.53-10h2.59l3.54,10Zm-1.23-4.16c-.67-2.15-1.05-3.37-1.13-3.65s-.15-.51-.19-.67q-.22.87-1.29,4.32Z"/><path class="cls-1" d="M29.35,169.14a2.17,2.17,0,0,0-1.85.9,4.15,4.15,0,0,0-.66,2.5c0,2.23.84,3.34,2.51,3.34a7.89,7.89,0,0,0,2.55-.52v1.78a7.08,7.08,0,0,1-2.74.51,4.2,4.2,0,0,1-3.34-1.32,5.62,5.62,0,0,1-1.16-3.8,6.16,6.16,0,0,1,.57-2.73,4.08,4.08,0,0,1,1.63-1.8,4.8,4.8,0,0,1,2.49-.63,6.75,6.75,0,0,1,2.93.71l-.69,1.72a12.07,12.07,0,0,0-1.12-.47A3.42,3.42,0,0,0,29.35,169.14Z"/><path class="cls-1" d="M39.78,177.51H34v-10h5.75v1.73H36.15v2.2h3.38v1.73H36.15v2.58h3.63Z"/><path class="cls-1" d="M45.51,167.52h3.11a6,6,0,0,1,3.08.6,2.11,2.11,0,0,1,1,1.93,2.46,2.46,0,0,1-.42,1.47,1.69,1.69,0,0,1-1.11.69v.06a2.24,2.24,0,0,1,1.37.8,2.89,2.89,0,0,1-.57,3.68,4.27,4.27,0,0,1-2.68.76H45.51Zm2.12,4h1.23a2.19,2.19,0,0,0,1.24-.27,1,1,0,0,0,.39-.88.89.89,0,0,0-.42-.83,2.77,2.77,0,0,0-1.33-.25H47.63Zm0,1.68v2.6H49a2.08,2.08,0,0,0,1.29-.33,1.25,1.25,0,0,0,.42-1c0-.83-.6-1.24-1.78-1.24Z"/><path class="cls-1" d="M60.67,177.51H54.91v-10h5.76v1.73H57v2.2h3.39v1.73H57v2.58h3.64Z"/><path class="cls-1" d="M62.75,177.51v-10h2.12v10Z"/><path class="cls-1" d="M76.25,177.51H73.56L69.21,170h-.06c.09,1.34.13,2.29.13,2.86v4.7H67.39v-10h2.67L74.4,175h0c-.07-1.3-.1-2.21-.1-2.75v-4.73h1.9Z"/><path class="cls-1" d="M82.56,171.9h4v5.18a10.64,10.64,0,0,1-1.82.44,11,11,0,0,1-1.74.13,4.42,4.42,0,0,1-3.45-1.33,5.52,5.52,0,0,1-1.19-3.82,5,5,0,0,1,1.38-3.77,5.26,5.26,0,0,1,3.84-1.36,7.41,7.41,0,0,1,3,.62l-.7,1.69a5.09,5.09,0,0,0-2.28-.54,2.8,2.8,0,0,0-2.2.92,3.57,3.57,0,0,0-.82,2.48,4,4,0,0,0,.66,2.49,2.31,2.31,0,0,0,1.94.85,7,7,0,0,0,1.35-.13v-2.09h-1.9Z"/><path class="cls-1" d="M12.76,194.31H10.64v-8.23H7.93v-1.76h7.55v1.76H12.76Z"/><path class="cls-1" d="M25.2,194.31H23.09V190h-4v4.31H17v-10h2.12v3.91h4v-3.91H25.2Z"/><path class="cls-1" d="M33.48,194.31H27.73v-10h5.75v1.73H29.84v2.2h3.39V190H29.84v2.58h3.64Z"/><path class="cls-1" d="M39.2,194.31v-10h2.12v8.24h4.06v1.75Z"/><path class="cls-1" d="M56.18,189.3A5.41,5.41,0,0,1,55,193.11a4.55,4.55,0,0,1-3.52,1.34,4.57,4.57,0,0,1-3.53-1.34,5.42,5.42,0,0,1-1.23-3.82,5.36,5.36,0,0,1,1.23-3.81,4.62,4.62,0,0,1,3.54-1.32A4.51,4.51,0,0,1,55,185.49,5.39,5.39,0,0,1,56.18,189.3Zm-7.29,0a4.11,4.11,0,0,0,.64,2.52,2.2,2.2,0,0,0,1.9.85c1.69,0,2.53-1.12,2.53-3.37s-.84-3.38-2.52-3.38a2.27,2.27,0,0,0-1.91.85A4.16,4.16,0,0,0,48.89,189.3Z"/><path class="cls-1" d="M68,194.31H65.58l-1.36-5.25c0-.19-.13-.57-.25-1.16s-.19-1-.21-1.18c0,.25-.1.64-.21,1.19s-.19.93-.25,1.17L62,194.31h-2.4l-2.55-10h2.08l1.28,5.45c.22,1,.39,1.88.49,2.62,0-.26.09-.66.18-1.21a12.89,12.89,0,0,1,.28-1.26l1.46-5.6h2l1.46,5.6q.09.38.24,1.14c.09.52.16,1,.21,1.33,0-.36.12-.8.22-1.33s.19-1,.28-1.29l1.27-5.45h2.08Z"/><path class="cls-1" d="M77.55,194.31H71.79v-10h5.76v1.73H73.91v2.2h3.38V190H73.91v2.58h3.64Z"/><path class="cls-1" d="M85.53,191.54a2.58,2.58,0,0,1-1,2.13,4.24,4.24,0,0,1-2.71.78,6.37,6.37,0,0,1-2.83-.6v-2a11,11,0,0,0,1.71.63,4.78,4.78,0,0,0,1.28.19,1.8,1.8,0,0,0,1.07-.27.9.9,0,0,0,.37-.79.85.85,0,0,0-.16-.52,1.91,1.91,0,0,0-.48-.45c-.22-.14-.65-.36-1.3-.67a6.25,6.25,0,0,1-1.37-.83,2.94,2.94,0,0,1-.73-.92,2.54,2.54,0,0,1-.28-1.23,2.59,2.59,0,0,1,.9-2.09,3.78,3.78,0,0,1,2.49-.76,5.94,5.94,0,0,1,1.48.19,9.07,9.07,0,0,1,1.48.52l-.68,1.64a9.86,9.86,0,0,0-1.32-.45,4.1,4.1,0,0,0-1-.13,1.38,1.38,0,0,0-.93.28.93.93,0,0,0-.32.73,1,1,0,0,0,.13.49,1.48,1.48,0,0,0,.42.4,12.89,12.89,0,0,0,1.34.7A5.35,5.35,0,0,1,85,189.89,2.56,2.56,0,0,1,85.53,191.54Z"/><path class="cls-1" d="M91.2,194.31H89.08v-8.23H86.36v-1.76h7.55v1.76H91.2Z"/><path class="cls-2" d="M90.05,150.36H11.79A11.8,11.8,0,0,1,0,138.57V11.79A11.8,11.8,0,0,1,11.79,0H90.05a11.8,11.8,0,0,1,11.79,11.79V138.57A11.8,11.8,0,0,1,90.05,150.36ZM11.79,2A9.8,9.8,0,0,0,2,11.79V138.57a9.8,9.8,0,0,0,9.79,9.79H90.05a9.8,9.8,0,0,0,9.79-9.79V11.79A9.8,9.8,0,0,0,90.05,2Z"/><path class="cls-2" d="M19.44,46.5,31.32,20.81a.68.68,0,0,1,.65-.42h.38a.66.66,0,0,1,.65.42L44.75,46.5a.67.67,0,0,1-.64,1H40.79a1.1,1.1,0,0,1-1.11-.76l-1.87-4.12H26.39l-1.87,4.12a1.14,1.14,0,0,1-1.11.76H20.09A.67.67,0,0,1,19.44,46.5Zm16.5-8.13L32.12,30H32l-3.74,8.4Z"/><polygon class="cls-2" points="19.53 94.97 25.52 102.84 31.51 110.72 37.5 102.84 43.48 94.97 33.16 94.97 33.16 77.03 29.85 77.03 29.85 94.97 19.53 94.97"/><rect class="cls-2" x="19.63" y="116.79" width="23.75" height="2.76" transform="translate(63.01 236.35) rotate(180)"/></g></svg>