<?xml version="1.0" encoding="utf-8"?>
<svg xmlns="http://www.w3.org/2000/svg" width="901" height="140" viewBox="0 0 901 140" fill="none">
<g clip-path="url(#clip0_15284_15701)">
<rect width="900" height="140" transform="translate(0.5)" fill="url(#paint0_linear_15284_15701)"/>
<path fill-rule="evenodd" clip-rule="evenodd" d="M420.049 -184.594H184.184C166.387 -113.027 134.569 -58.698 78.369 -31.2337C48.8687 -16.9356 19.8762 -6.61667 -8.5 0.238037V275.892C67.1453 273.435 144.74 254.82 222.926 216.583C355.916 151.503 402.851 -3.76868 420.049 -184.594ZM960.5 200.402V324.068H493.211C611.01 295.028 716.614 273.109 716.614 273.109C716.614 273.109 563.506 135.595 534.949 76.6758C495.142 -4.22543 628.293 -118.262 631.19 -119.666C632.683 -120.372 634.357 -120.602 635.985 -120.324C637.613 -120.046 639.116 -119.274 640.291 -118.113C677.118 -83.594 908.621 148.386 960.5 200.402Z" fill="#0079FF" fill-opacity="0.3"/>
<path d="M475.704 28H424.375C418.645 28 414 32.6535 414 38.3939V100.606C414 106.346 418.645 111 424.375 111H475.704C481.434 111 486.079 106.346 486.079 100.606V38.3939C486.079 32.6535 481.434 28 475.704 28Z" fill="white"/>
<path d="M467.635 38.8203H432.445C428.163 38.8203 424.691 42.2978 424.691 46.5876V54.383C424.691 58.6728 428.163 62.1503 432.445 62.1503H467.635C471.917 62.1503 475.388 58.6728 475.388 54.383V46.5876C475.388 42.2978 471.917 38.8203 467.635 38.8203Z" fill="#0079FF"/>
<path d="M430.907 81.9544C434.34 81.9544 437.123 79.1664 437.123 75.7272C437.123 72.288 434.34 69.5 430.907 69.5C427.474 69.5 424.691 72.288 424.691 75.7272C424.691 79.1664 427.474 81.9544 430.907 81.9544Z" fill="#80BCFF"/>
<path d="M450.04 81.9544C453.473 81.9544 456.256 79.1664 456.256 75.7272C456.256 72.288 453.473 69.5 450.04 69.5C446.607 69.5 443.824 72.288 443.824 75.7272C443.824 79.1664 446.607 81.9544 450.04 81.9544Z" fill="#80BCFF"/>
<path d="M469.173 81.9544C472.606 81.9544 475.389 79.1664 475.389 75.7272C475.389 72.288 472.606 69.5 469.173 69.5C465.74 69.5 462.957 72.288 462.957 75.7272C462.957 79.1664 465.74 81.9544 469.173 81.9544Z" fill="#80BCFF"/>
<path d="M430.907 100.173C434.34 100.173 437.123 97.3851 437.123 93.9459C437.123 90.5068 434.34 87.7188 430.907 87.7188C427.474 87.7188 424.691 90.5068 424.691 93.9459C424.691 97.3851 427.474 100.173 430.907 100.173Z" fill="#80BCFF"/>
<path d="M469.173 87.7188H450.04C446.608 87.7188 443.824 90.5071 443.824 93.9459C443.824 97.3848 446.608 100.173 450.04 100.173H469.173C472.605 100.173 475.389 97.3848 475.389 93.9459C475.389 90.5071 472.605 87.7188 469.173 87.7188Z" fill="#0079FF"/>
</g>
<defs>
<linearGradient id="paint0_linear_15284_15701" x1="611.5" y1="-17" x2="611.5" y2="216" gradientUnits="userSpaceOnUse">
<stop stop-color="#213743"/>
<stop offset="1" stop-color="#0079FF"/>
</linearGradient>
<clipPath id="clip0_15284_15701">
<rect width="900" height="140" fill="white" transform="translate(0.5)"/>
</clipPath>
</defs>
</svg>