<?xml version="1.0" encoding="utf-8"?>
<svg xmlns="http://www.w3.org/2000/svg" fill="none" viewBox="0 0 900 140" height="140" width="900">
<g clip-path="url(#clip0_15279_8479)">
<rect fill="url(#paint0_linear_15279_8479)" height="140" width="900"/>
<path fill-opacity="0.3" fill="#0079FF" d="M419.549 -184.594H183.684C165.887 -113.028 134.069 -58.6984 77.869 -31.234C48.3687 -16.936 19.3762 -6.61703 -9 0.237671L-9 275.891C66.6453 273.435 144.24 254.82 222.426 216.582C355.416 151.502 402.351 -3.76904 419.549 -184.594ZM960 200.402V324.067H492.711C610.51 295.028 716.114 273.108 716.114 273.108C716.114 273.108 563.006 135.595 534.449 76.6755C494.642 -4.2258 627.793 -118.262 630.69 -119.666C632.183 -120.372 633.857 -120.602 635.485 -120.324C637.113 -120.046 638.616 -119.274 639.791 -118.113C676.618 -83.5944 908.121 148.386 960 200.402Z" clip-rule="evenodd" fill-rule="evenodd"/>
<rect fill="#80BCFF" rx="10" height="66.1571" width="64" y="49.8433" x="431"/>
<rect fill="#80BCFF" rx="10" height="66.1571" width="64" y="24" x="406"/>
<rect fill="white" rx="10" height="66.1571" width="64" y="36.4004" x="419"/>
<path fill="#0079FF" d="M432.289 64.1758L432.282 64.1834C429.917 66.6277 429.917 70.5908 432.282 73.0351L442.039 83.1209C444.403 85.5653 448.237 85.5653 450.602 83.1209L450.609 83.1133C452.974 80.669 452.974 76.7059 450.609 74.2616L440.852 64.1758C438.487 61.7314 434.654 61.7314 432.289 64.1758Z"/>
<path fill="#0079FF" d="M470.019 54.2764L470.012 54.2688C467.647 51.8244 463.814 51.8244 461.449 54.2688L442.09 74.2804C439.725 76.7248 439.725 80.6878 442.09 83.1322L442.097 83.1398C444.462 85.5841 448.296 85.5841 450.66 83.1398L470.019 63.1281C472.384 60.6838 472.384 56.7207 470.019 54.2764Z"/>
</g>
<defs>
<linearGradient gradientUnits="userSpaceOnUse" y2="216" x2="611.5" y1="-17" x1="611.5" id="paint0_linear_15279_8479">
<stop stop-color="#213743"/>
<stop stop-color="#0079FF" offset="1"/>
</linearGradient>
<clipPath id="clip0_15279_8479">
<rect fill="white" height="140" width="900"/>
</clipPath>
</defs>
</svg>