<svg xmlns="http://www.w3.org/2000/svg" xmlns:xlink="http://www.w3.org/1999/xlink" version="1.1" id="Layer_1" x="0px" y="0px" style="enable-background:new 0 0 3589.5 2416;" xml:space="preserve" viewBox="871.34 633.24 1846.83 1149.53">
<style type="text/css">
	.st0{fill:#630068;}
	.st1{fill:#FFFFFF;}
</style>
<g>
	<g>
		<g>
			<path class="st0" d="M2664,1184.26c-7.94,0-15.5,1.63-22.31,4.67c9.69-16.66,17.53-28.78,20.17-32.43l7.76-10.77v-13.28     c0-23.04-15.8-44.89-25.23-55.87c-12.98-15.12-34-33.15-60.38-33.15c-16.2,0-29.47,6.42-41.16,12.08     c-13.31,6.44-25.87,12.53-45.67,12.53c-24.88,0-31.71-6.04-36.71-10.46c-5.45-4.81-16.78-14.83-34.4-14.83     c-17.23,0-32.86,8.06-44,22.18c-17.94-14.27-41.73-21.5-70.85-21.5c-34.99,0-70.15,16.95-102.54,48.78     c-7.53-15.16-20.48-27.78-37.94-36.45c-23.64-11.74-48.35-13-57.88-13h-34.88l-2.37,14.26c-13.7-8.4-30.01-13.05-48.32-13.57     c-0.77-0.02-1.56-0.04-2.32-0.04c-31.78,0-64.61,19.87-97.63,59.04c-7.76,9.21-15.42,19.37-22.85,30.25v-2.74     c0.39-2.23,0.68-4.85,0.68-7.77c0-20.67-11.03-40.98-31.07-57.2c-8-6.49-29.35-21.56-54.53-21.56     c-14.36,0-28.24,5.67-38.08,15.57l-2.7,2.71c-3.69-2.8-7.6-5.3-11.73-7.49c-12.98-6.88-27.74-10.51-43.87-10.79l-0.58-0.01     l-0.59,0.01c-25.45,0.29-51.89,13.78-78.58,40.1c-12.25,12.07-24.62,26.9-36.59,43.79c0.06-0.13,0.13-0.28,0.19-0.41     c29.54-62.99,59.29-119.19,86.02-162.52c34.93-56.6,52.92-71.89,57.88-75.4l43.98-4.42l-12.11-46.51     c-0.88-3.4-5.91-21.28-17.87-39.84c-19.44-30.15-47.65-46.76-79.41-46.76c-3.08,0-6.21,0.17-9.31,0.47     c-34.55,3.49-67.89,30.36-104.94,84.59c-19.25,28.17-39.7,64.29-60.15,106.13c-4.18-22.65-17.76-42.75-38.79-57.12     c-18.28-12.49-41.2-19.66-62.88-19.66c-3.24,0-6.49,0.16-9.62,0.47l-2.09,0.22l-2.05,0.41c-21.33,4.37-39.27,21.66-66.17,63.78     c-7.25,11.34-14.94,24.25-22.93,38.45c2.42-21.21,2.75-40.71,0.97-58.38c-3.11-30.91-12.78-56.02-28.75-74.63     c-13.75-16.04-39.23-35.16-82.39-35.16c-5.19,0-10.61,0.28-16.09,0.84c-29.59,2.98-64.13,17.11-102.66,42     c-31.14,20.12-64.4,46.95-96.16,77.58c-29.71,28.66-56.6,59.32-75.73,86.34c-25.36,35.82-36.23,63.32-34.21,86.53     c2.32,27.19,13.56,53.84,31.63,75.05c8.64,10.16,31.74,33.79,59.19,33.79c1.6,0,3.2-0.08,4.77-0.24     c10.48-1.05,19.48-4.98,26.73-11.65c9.41-8.66,14.42-20.81,14.06-33.79c0.35-2.13,3.12-15.31,22.13-46.89     c14.27-23.72,34.44-52.28,56.78-80.4c21.88-27.54,45.07-53.74,65.32-73.78c1.28-1.28,2.54-2.51,3.77-3.69     c-5.1,19.76-12.07,41.73-18.29,61.01l-0.01,0.07l-0.02,0.06l-0.8,2.49c-18.86,59.1-53.97,169.14-68.21,243.4l-0.02,0.15     l-0.04,0.15c-4.89,26.6-6.26,49.61-4.16,70.36c5.85,58.1,34.95,92.82,58.34,111.72c26.51,21.42,60.94,34.2,92.11,34.2     c3.63,0,7.23-0.18,10.69-0.53c32.92-3.31,48.16-19.72,55.16-32.91l5.84-11.01l-1.14-11.36c0.19-3.17,2.22-20.19,21.82-78.21     c5.69,35.22,18.41,62.86,37.92,82.31c19.85,19.82,45.75,30.29,74.88,30.29c4.03,0,8.16-0.22,12.25-0.63     c17.64-1.77,31.86-7,40.7-11.08c15.5-7.14,26.4-16.11,32.45-26.66l6.66-11.63l-1.45-13.21c-0.06-1.05-0.46-14.3,13.08-57.8     c-0.64,6.89-0.96,13.58-0.96,20.05c0,31.94,7.93,58.17,23.55,77.97c13.09,16.59,37.92,36.34,81.88,36.34     c23.26,0,46.2-11.27,68.21-33.5c18.45,21.63,44.82,33.5,74.67,33.5c25.58,0,51.4-12.17,76.76-36.15     c0.31-0.29,0.63-0.58,0.94-0.88c0.07,0.11,0.16,0.21,0.24,0.32c6.79,8.72,16.77,18.31,31.01,25.5     c-16.37,2.72-32.01,6.33-46.86,10.84c-34.93,10.59-65.46,26.03-90.75,45.9c-47.05,36.94-74.03,88.08-74.03,140.32     c0,34.41,12.02,66.27,33.85,89.73c23.35,25.11,56.55,38.93,93.46,38.93c78.37,0,149.69-42.99,206.25-124.31     c27.18-39.09,44.66-78.05,53.34-99.82c22.43-11.67,40.04-26.31,43.18-29c23.41-19.6,47.58-46.65,72.14-80.7     c19.66,12.58,42.74,19.33,67.6,19.33c0.62,0,1.22,0,1.84-0.01c50.61-0.73,100.44-33.21,148.12-96.54     c12.68-16.83,25.02-35.56,36.93-56.03c-0.33,1.48-0.65,2.95-0.96,4.42c-2.45,11.42-3.63,23.38-3.63,36.59     c0,30.76,8.97,57.4,25.93,77c13.64,15.77,39.1,34.58,82.92,34.58c23.52,0,47.3-10.71,70.65-31.84     c15.79-14.27,31.6-33.22,48.35-57.92c20.68-30.48,41.74-68.25,64.4-115.45l1.13-2.34l0.82-2.46c1.59-4.77,3.47-12.07,3.47-19.86     C2718.15,1208.55,2693.85,1184.26,2664,1184.26z M1469.69,1396.11c-2.93,5.1-20.47,15.11-41.56,17.23     c-2.65,0.28-5.38,0.42-8.12,0.42c-31.04,0-66.54-18.57-73.78-90.44c-6.16-61.33,58.15-340.17,59.33-345.34     c-2.53,5.96-166.48,393.65-161.24,445.62c-3.46,6.54-11.36,10.07-22.92,11.25c-2.09,0.21-4.29,0.32-6.56,0.32     c-38.52,0-101.61-30.53-109.5-108.89c-1.78-17.68-0.29-37.07,3.7-58.78c13.97-72.87,49-182.2,67.8-241.14     c14.66-45.45,30.21-95.8,27.4-123.69c-1.27-12.6-6.16-20.12-17.16-20.12c-0.87,0-1.77,0.04-2.72,0.13     c-44.89,4.53-219.31,217.23-217.57,275.46c0.28,2.72-1.02,3.54-3.74,3.81c-0.21,0.02-0.42,0.04-0.64,0.04     c-11.59,0-46.11-27.77-49.82-71.22c-4.52-51.77,173.92-238.09,271.88-247.94c4.18-0.42,8.17-0.63,11.97-0.63     c47,0,66.01,31.21,70.19,72.75c3.56,35.38-3.83,78.03-14.42,116.2c-34,119.55-75.36,206.85-66.05,299.37     c0.96,9.52,1.92,19.04,4.24,28.43c53.61-197.79,180.58-444.89,213.57-451.65c1.79-0.18,3.64-0.27,5.51-0.27     c26.43,0,58.79,17.82,61.67,46.42c0.34,3.4-0.07,6.19-0.47,8.98c-56.32,218.68-54.75,322.97-51.19,358.33     c1.03,10.21,2.19,14.9,2.19,14.9c20.85-154.65,169.57-533.81,258.68-542.78c1.77-0.17,3.5-0.27,5.18-0.27     c42.92,0,57.43,55.81,57.43,55.81C1670.2,855.75,1461.34,1319.98,1469.69,1396.11z M2675.62,1245.26     c-24.61,51.27-90.24,181.85-146.3,181.85c-47.86,0-67.69-30.76-67.69-70.41c0-8.89,0.68-18.46,2.74-28.04     c19-90.9,93.17-185.15,94.33-186.62c-13.69,12.99-58.11,29.38-90.92,29.38c-6.15,0-11.62-0.68-17.09-2.05     c-6.15,15.71-20.48,45.09-34.84,75.82v0.01c-0.01,0.01-0.01,0.04-0.02,0.05c0,0,0,0-0.01,0.02c0,0-0.01,0.02-0.02,0.05     c-0.01,0.05-0.05,0.13-0.1,0.22c-0.06,0.1-0.12,0.22-0.17,0.34c-0.06,0.13-0.15,0.28-0.23,0.44c-0.02,0.04-0.05,0.07-0.06,0.11     c-8.39,16.99-84.38,179.36-175.78,180.68h-1.28c-30.76,0-57.47-15.08-73.69-42.87c-26.91,42.75-59.02,85.87-92.63,113.97     c0,0-23.92,20.52-49.23,30.09c0,0-69.73,213.31-226.97,213.31c-54.01,0-86.15-39.65-86.15-87.51     c0-71.79,72.47-162.03,248.86-162.03c19.14-50.59,39.65-103.92,59.48-154.5c-26.66,48.54-58.11,89.55-86.83,89.55     c-46.49,0-64.26-30.76-64.26-74.52c0-3.52,0.12-7.12,0.35-10.8c-30.31,47.39-64.56,85.32-96.07,85.32     c-37.59,0-60.84-28.7-62.2-79.3c-25.3,43.75-54.02,79.3-80.68,79.3c-46.49,0-64.26-30.76-64.26-73.15     c0-100.5,98.45-268.68,158.61-269.37c40.34,0.69,52.64,33.5,55.38,63.58c18.46-35.55,32.82-60.16,32.82-60.16     c2.05-2.06,5.47-3.43,8.89-3.43c17.09,0,44.43,20.51,44.43,37.6c0,1.37-0.68,2.06-0.68,3.43     c-17.09,31.44-60.16,129.89-60.16,177.75c0,15.73,4.78,25.98,17.08,25.98c21.2,0,51.28-49.23,75.9-96.39     c0.34-0.8,0.74-1.54,1.2-2.22c33.54-76.48,87.85-146.18,127.58-146.18c0.38,0,0.75,0.01,1.11,0.02     c50.58,1.37,56.05,49.23,56.05,88.87c17.09-44.43,28.72-77.25,30.76-89.55c22.57,0,62.22,9.56,62.22,41.02     c0,4.78-0.68,10.94-3.41,17.09c-13.62,34.73-128.98,331.31-129.88,333.62c38.51-23.04,78.03-75.52,109.61-125.8     c-2.32-10.63-3.56-22.26-3.56-34.86c0-75.88,79.99-230.4,163.39-230.4c45.81,0,62.91,23.24,62.91,54.7     c0,61.53-66.32,153.83-102.56,153.83c-33.17,0-37.63-27.28-38.2-36.19c-0.12-1.74-0.08-2.78-0.08-2.78     c-1.68,2.25-3.84,7.76-5.8,15.23c-2.78,10.64-5.15,25.28-5.15,40.15c0,29.08,8.69,58.81,41.95,58.81c0.38,0,0.75-0.01,1.13-0.01     c49.9,0,107.34-101.19,107.34-101.19c6.74-10.79,13.5-21.6,19.59-33.7c0.1-0.23,0.17-0.38,0.21-0.44     c0.01-0.02,0.01-0.04,0.01-0.04c14.36-28.04,28.72-58.12,35.56-73.84c-12.31-8.21-22.57-18.46-22.57-37.6     c0-16.42,6.84-37.6,20.51-37.6c7.53,0,15.73,25.29,71.1,25.29c47.18,0,69.06-24.61,86.83-24.61c18.46,0,44.44,34.19,44.44,47.86     c-12.31,17.09-76.57,121.7-76.57,170.92c0,15.73,6.15,25.29,22.57,25.29c28.03,0,67-74.52,77.93-95.7     c2.06-4.79,6.16-7.53,11.62-7.53c6.84,0,12.99,5.47,12.99,12.99C2676.99,1241.15,2675.62,1245.26,2675.62,1245.26z"/>
		</g>
	</g>
	<g>
		<g>
			<path class="st0" d="M2335.85,1141.33c-25.98,0-86.14,73.16-86.14,100.51c0,5.46,2.74,9.56,8.2,9.56     c26.67,0,85.46-73.84,85.46-101.19C2343.36,1144.76,2341.32,1141.33,2335.85,1141.33z M2335.85,1141.33     c-25.98,0-86.14,73.16-86.14,100.51c0,5.46,2.74,9.56,8.2,9.56c26.67,0,85.46-73.84,85.46-101.19     C2343.36,1144.76,2341.32,1141.33,2335.85,1141.33z M2335.85,1141.33c-25.98,0-86.14,73.16-86.14,100.51     c0,5.46,2.74,9.56,8.2,9.56c26.67,0,85.46-73.84,85.46-101.19C2343.36,1144.76,2341.32,1141.33,2335.85,1141.33z      M2335.85,1141.33c-25.98,0-86.14,73.16-86.14,100.51c0,5.46,2.74,9.56,8.2,9.56c26.67,0,85.46-73.84,85.46-101.19     C2343.36,1144.76,2341.32,1141.33,2335.85,1141.33z M2335.85,1141.33c-25.98,0-86.14,73.16-86.14,100.51     c0,5.46,2.74,9.56,8.2,9.56c26.67,0,85.46-73.84,85.46-101.19C2343.36,1144.76,2341.32,1141.33,2335.85,1141.33z"/>
		</g>
		<g>
			<path class="st0" d="M2335.85,1141.33c-25.98,0-86.14,73.16-86.14,100.51c0,5.46,2.74,9.56,8.2,9.56     c26.67,0,85.46-73.84,85.46-101.19C2343.36,1144.76,2341.32,1141.33,2335.85,1141.33z M2335.85,1141.33     c-25.98,0-86.14,73.16-86.14,100.51c0,5.46,2.74,9.56,8.2,9.56c26.67,0,85.46-73.84,85.46-101.19     C2343.36,1144.76,2341.32,1141.33,2335.85,1141.33z M2335.85,1141.33c-25.98,0-86.14,73.16-86.14,100.51     c0,5.46,2.74,9.56,8.2,9.56c26.67,0,85.46-73.84,85.46-101.19C2343.36,1144.76,2341.32,1141.33,2335.85,1141.33z      M2335.85,1141.33c-25.98,0-86.14,73.16-86.14,100.51c0,5.46,2.74,9.56,8.2,9.56c26.67,0,85.46-73.84,85.46-101.19     C2343.36,1144.76,2341.32,1141.33,2335.85,1141.33z M2335.85,1141.33c-25.98,0-86.14,73.16-86.14,100.51     c0,5.46,2.74,9.56,8.2,9.56c26.67,0,85.46-73.84,85.46-101.19C2343.36,1144.76,2341.32,1141.33,2335.85,1141.33z      M2335.85,1141.33c-25.98,0-86.14,73.16-86.14,100.51c0,5.46,2.74,9.56,8.2,9.56c26.67,0,85.46-73.84,85.46-101.19     C2343.36,1144.76,2341.32,1141.33,2335.85,1141.33z M2335.85,1141.33c-25.98,0-86.14,73.16-86.14,100.51     c0,5.46,2.74,9.56,8.2,9.56c26.67,0,85.46-73.84,85.46-101.19C2343.36,1144.76,2341.32,1141.33,2335.85,1141.33z      M2335.85,1141.33c-25.98,0-86.14,73.16-86.14,100.51c0,5.46,2.74,9.56,8.2,9.56c26.67,0,85.46-73.84,85.46-101.19     C2343.36,1144.76,2341.32,1141.33,2335.85,1141.33z M2335.85,1141.33c-25.98,0-86.14,73.16-86.14,100.51     c0,5.46,2.74,9.56,8.2,9.56c26.67,0,85.46-73.84,85.46-101.19C2343.36,1144.76,2341.32,1141.33,2335.85,1141.33z"/>
		</g>
		<g>
			<path class="st0" d="M1944.69,1533.77c0,0-56.07,139.47-122.39,139.47c-26.66,0-38.97-12.99-38.97-31.45     C1783.34,1600.77,1846.24,1533.77,1944.69,1533.77z"/>
		</g>
		<g>
			<path class="st0" d="M2054.76,1156.38c0,46.49-70.41,192.8-103.23,192.8c-8.89,0-9.56-9.58-9.56-17.09     c0-50.59,62.22-199.64,94.35-199.64C2049.97,1132.45,2054.76,1142.7,2054.76,1156.38z"/>
		</g>
		<g>
			<path class="st0" d="M1751.22,1157.06c0,46.49-69.06,192.12-102.56,192.12c-8.89,0-10.25-10.25-10.25-17.09     c0-51.96,62.22-199.64,94.35-199.64C1746.42,1132.45,1751.22,1143.39,1751.22,1157.06z"/>
		</g>
	</g>
	<g>
		<g>
			<path class="st0" d="M2377.08,1239.2c0,0,0,0-0.01,0.02c0.01-0.01,0.02-0.01,0.02-0.02c0,0,0-0.01,0.01-0.05     C2377.09,1239.16,2377.09,1239.19,2377.08,1239.2z"/>
		</g>
		<path class="st0" d="M2377.11,1239.15c-0.01,0.04-0.01,0.05-0.01,0.05c0,0.01-0.01,0.01-0.02,0.02c0.01-0.02,0.01-0.02,0.01-0.02    C2377.09,1239.19,2377.09,1239.16,2377.11,1239.15"/>
	</g>
	<g>
		<g>
			<g>
				<path class="st0" d="M2331.42,890.61c-6.63-4.07-11.55-10.58-13.58-18.41l-32.34-124.69c-2.98-11.48,1.01-23.78,10.16-31.32      l92.01-75.94c7.87-6.49,18.41-8.64,28.19-5.75l123.93,36.63l0,0c10.6,3.14,18.71,11.77,21.18,22.54l28.49,124.29      c2.95,12.86-2.63,26.12-13.89,32.99l-103.56,63.27c-6.76,4.13-14.74,5.48-22.48,3.8L2341,894.44      C2337.55,893.69,2334.32,892.38,2331.42,890.61z M2535.35,686.16l-123.93-36.63c-4.78-1.41-9.92-0.36-13.77,2.81l-92.01,75.94      c-4.47,3.69-6.42,9.69-4.96,15.3l32.34,124.69c1.43,5.5,5.76,9.66,11.31,10.87l108.53,23.57c3.78,0.82,7.68,0.16,10.98-1.85      l103.56-63.27c5.5-3.36,8.22-9.83,6.78-16.11l-28.49-124.29C2544.48,691.9,2540.52,687.69,2535.35,686.16L2535.35,686.16z"/>
			</g>
		</g>
		<g>
			<g>
				<path class="st0" d="M2410.68,661.21c13.43,53.16,23.76,106.93,33.31,160.87c0,0-3.18-3.06-3.18-3.06      c18.53,2.8,37.01,5.89,55.47,9.08c18.46,3.3,36.9,6.7,55.23,10.71c-18.72-1.33-37.37-3.29-56.01-5.34      c-18.61-2.16-37.21-4.41-55.77-6.96c-1.65-0.24-2.9-1.51-3.18-3.06c-2.54-13.45-5.11-26.89-7.45-40.38      C2421.94,742.6,2415.34,702.09,2410.68,661.21L2410.68,661.21z"/>
			</g>
		</g>
		<g>
			<g>
				<path class="st0" d="M2442.44,826.03l-84,51.08l79.67-57.61C2442.5,816.47,2446.97,823.14,2442.44,826.03L2442.44,826.03z"/>
			</g>
		</g>
		<g>
			<g>
				<g>
					
						<ellipse transform="matrix(0.5228 -0.8525 0.8525 0.5228 508.3606 2478.5337)" class="st0" cx="2467.98" cy="785.21" rx="9.16" ry="11.85"/>
				</g>
			</g>
			<g>
				<g>
					
						<ellipse transform="matrix(0.5228 -0.8525 0.8525 0.5228 518.9359 2512.8643)" class="st0" cx="2503.93" cy="792.92" rx="9.16" ry="11.85"/>
				</g>
			</g>
			<g>
				<g>
					
						<ellipse transform="matrix(0.5228 -0.8525 0.8525 0.5228 529.5113 2547.1948)" class="st0" cx="2539.88" cy="800.64" rx="9.16" ry="11.85"/>
				</g>
			</g>
		</g>
		<g>
			<g>
				<g>
					
						<ellipse transform="matrix(0.5228 -0.8525 0.8525 0.5228 580.259 2418.2466)" class="st0" cx="2450.08" cy="690.84" rx="9.16" ry="11.85"/>
				</g>
			</g>
			<g>
				<g>
					
						<ellipse transform="matrix(0.5228 -0.8525 0.8525 0.5228 590.8298 2452.572)" class="st0" cx="2486.03" cy="698.56" rx="9.16" ry="11.85"/>
				</g>
			</g>
			<g>
				<g>
					
						<ellipse transform="matrix(0.5228 -0.8525 0.8525 0.5228 601.4085 2486.9397)" class="st0" cx="2522.01" cy="706.3" rx="9.16" ry="11.85"/>
				</g>
			</g>
		</g>
		<g>
			<g>
				
					<ellipse transform="matrix(0.5228 -0.8525 0.8525 0.5228 462.1342 2421.6289)" class="st0" cx="2394.04" cy="798.04" rx="17.86" ry="14.42"/>
			</g>
		</g>
		<g>
			<g>
				
					<ellipse transform="matrix(0.5228 -0.8525 0.8525 0.5228 478.2407 2338.6721)" class="st0" cx="2328" cy="742.18" rx="17.86" ry="14.42"/>
			</g>
		</g>
		<g>
			<g>
				
					<ellipse transform="matrix(0.133 -0.9911 0.9911 0.133 1289.6428 3162.7412)" class="st0" cx="2452.65" cy="844.21" rx="7.64" ry="12.89"/>
			</g>
		</g>
		<g>
			<g>
				
					<ellipse transform="matrix(0.133 -0.9911 0.9911 0.133 1325.4963 3233.2432)" class="st0" cx="2510.87" cy="858.97" rx="7.64" ry="12.89"/>
			</g>
		</g>
		<g>
			<g>
				
					<ellipse transform="matrix(0.133 -0.9911 0.9911 0.133 1268.6792 3188.8855)" class="st0" cx="2457.11" cy="869.26" rx="7.64" ry="12.89"/>
			</g>
		</g>
		<g>
			<g>
				<path class="st0" d="M2414.13,879.68c-0.47,3.5-5.65,5.7-11.56,4.91s-10.33-4.28-9.86-7.78c0.47-3.5,5.65-5.7,11.56-4.91      C2410.19,872.69,2414.6,876.17,2414.13,879.68z"/>
			</g>
		</g>
		<g>
			<g>
				<path class="st0" d="M2469.09,891.71c-0.41,3.06-4.93,4.98-10.09,4.28c-5.16-0.69-9.02-3.73-8.61-6.79      c0.41-3.06,4.93-4.98,10.09-4.28C2465.65,885.61,2469.5,888.65,2469.09,891.71z"/>
			</g>
		</g>
		<g>
			<g>
				<g>
					<path class="st0" d="M1957.07,920.48c-8.88-5.45-14.05-15.53-13.23-25.96l8.21-104.64c0.72-9.26,5.98-17.52,14.07-22.1       l98.94-56.01l0,0c8.76-4.96,19.55-4.8,28.16,0.39l96.05,57.96c10.35,6.17,15.43,18.25,12.82,29.97l-23.28,104.2       c-1.57,7.04-5.74,13.12-11.74,17.12l-81.26,54.26c-8.81,5.88-20,6.3-29.22,1.09l-98.66-55.77       C1957.64,920.82,1957.35,920.65,1957.07,920.48z M2072.78,725.41l-98.94,56.01c-3.54,2.01-5.85,5.63-6.16,9.68l-8.21,104.64       c-0.37,4.71,2.03,9.21,6.17,11.59l98.66,55.77c4.04,2.28,8.94,2.1,12.8-0.48l81.26-54.26c2.63-1.75,4.45-4.42,5.14-7.5       l23.28-104.2c1.14-5.11-1.08-10.35-5.54-13.08c-0.03-0.02-0.05-0.03-0.08-0.05l-96.05-57.96       C2081.34,723.31,2076.62,723.24,2072.78,725.41L2072.78,725.41z"/>
				</g>
			</g>
			<g>
				<g>
					<path class="st0" d="M1972.55,789.71c44.55,23.07,87.49,48.84,130.05,75.32c0,0-4.3,0.23-4.3,0.23       c13.79-10.53,27.76-20.82,41.79-31.03c14.11-10.13,28.27-20.19,42.8-29.73c-12.87,11.69-26.14,22.89-39.47,34.02       c-13.39,11.04-26.84,22-40.48,32.72c-1.28,0.99-3,1.04-4.3,0.24c-10.71-6.48-21.44-12.93-32.05-19.59       C2034.68,832.03,2003.11,811.71,1972.55,789.71L1972.55,789.71z"/>
				</g>
			</g>
			<g>
				<g>
					<path class="st0" d="M2104.48,868.97l-19.5,84.29l11.79-85.71C2097.62,862.24,2105.57,863.68,2104.48,868.97L2104.48,868.97z"/>
				</g>
			</g>
			<g>
				<g>
					
						<ellipse transform="matrix(0.5228 -0.8525 0.8525 0.5228 268.9955 2225.8594)" class="st0" cx="2122.61" cy="872.67" rx="13.22" ry="5.53"/>
				</g>
			</g>
			<g>
				<g>
					
						<ellipse transform="matrix(0.5228 -0.8525 0.8525 0.5228 322.1645 2246.7781)" class="st0" cx="2167.88" cy="835.64" rx="13.22" ry="5.53"/>
				</g>
			</g>
			<g>
				<g>
					
						<ellipse transform="matrix(0.5228 -0.8525 0.8525 0.5228 212.6039 2242.4146)" class="st0" cx="2109.2" cy="931.31" rx="13.22" ry="5.53"/>
				</g>
			</g>
			<g>
				<g>
					
						<ellipse transform="matrix(0.5228 -0.8525 0.8525 0.5228 265.7722 2263.3325)" class="st0" cx="2154.47" cy="894.28" rx="13.22" ry="5.53"/>
				</g>
			</g>
			<g>
				<g>
					
						<ellipse transform="matrix(0.9975 -0.0711 0.0711 0.9975 -50.5535 150.2123)" class="st0" cx="2084.43" cy="785.12" rx="17.12" ry="14.94"/>
				</g>
			</g>
			<g>
				<g>
					<g>
						
							<ellipse transform="matrix(0.9992 -0.0388 0.0388 0.9992 -30.5555 77.5274)" class="st0" cx="1982.49" cy="826.13" rx="9.42" ry="10.8"/>
					</g>
				</g>
				<g>
					<g>
						
							<ellipse transform="matrix(0.9992 -0.0388 0.0388 0.9992 -32.4845 80.948)" class="st0" cx="2070.41" cy="877.85" rx="9.42" ry="10.8"/>
					</g>
				</g>
				<g>
					<g>
						
							<ellipse transform="matrix(0.9992 -0.0388 0.0388 0.9992 -33.2073 77.4303)" class="st0" cx="1979.37" cy="894.72" rx="9.42" ry="10.8"/>
					</g>
				</g>
				<g>
					<g>
						
							<ellipse transform="matrix(0.9992 -0.0388 0.0388 0.9992 -34.9875 80.6076)" class="st0" cx="2060.21" cy="942.13" rx="9.42" ry="10.8"/>
					</g>
				</g>
				<g>
					<g>
						
							<ellipse transform="matrix(0.9992 -0.0388 0.0388 0.9992 -32.7139 79.0971)" class="st0" cx="2021.97" cy="882.58" rx="9.42" ry="10.8"/>
					</g>
				</g>
			</g>
		</g>
	</g>
</g>
</svg>