<?xml version="1.0" encoding="utf-8"?>
<!-- Generator: Adobe Illustrator 25.4.1, SVG Export Plug-In . SVG Version: 6.00 Build 0)  -->
<svg version="1.1" id="Layer_1" xmlns="http://www.w3.org/2000/svg" xmlns:xlink="http://www.w3.org/1999/xlink" x="0px" y="0px"
	 viewBox="0 0 3589.5 2416" style="enable-background:new 0 0 3589.5 2416;" xml:space="preserve">
<style type="text/css">
	.st0{fill:#630068;}
	.st1{fill:#FFFFFF;}
</style>
<rect x="-60.38" y="-40.98" class="st0" width="3710.25" height="2497.96"/>
<g>
	<g>
		<g>
			<g>
				<path class="st1" d="M2016.7,1165.67c0,0-63.46,181.76-109.06,181.76c-75.35,0,35.03-231.34,88.57-231.34
					C2020,1116.09,2016.7,1165.67,2016.7,1165.67z"/>
			</g>
			<g>
				<path class="st1" d="M1671.68,1164.35c-0.66,1.98-1.31,3.96-2.63,5.95c-20.49,56.18-62.14,178.46-105.76,178.46
					c-64.12,0,37.68-232.66,86.59-232.66C1666.4,1116.09,1671.02,1139.89,1671.68,1164.35z"/>
			</g>
		</g>
		<g>
			<g>
				<path class="st1" d="M2729.33,1157.12c-1.58,0.62-3.43,1.26-5.36,1.87c-0.8-6.99-1.37-15.1-1.79-21.03
					c-1.62-22.67-3.43-48.39-12.57-70.86c-6.38-15.67-15.71-28.18-27.72-37.17c-13.99-10.45-30.86-15.75-50.19-15.75
					c-18.08,0-36.17,6-53.76,17.87c-11.11,7.5-22.32,17.59-33.38,30.05c-4.81-6.98-10.48-13.17-16.98-18.5
					c-17.44-14.35-40.36-21.92-66.26-21.92c-18.57,0-32.92,3.85-35.6,4.62l-34.15,9.83c-6.29-5.14-13.24-9.43-20.81-12.84
					c-13.47-6.05-28.63-9.11-45.07-9.11c-40.22,0-78.74,15.52-114.49,46.15c-19.82,16.98-38.46,38.34-55.68,63.79
					c-14.06-17.24-33.33-26.66-54.87-26.66c-4.62,0-9.15,0.26-13.59,0.77c-5.91-19.36-14.57-35.39-26.09-48.41
					c-11.03-12.47-24.5-21.81-40.03-27.8c-13.53-5.21-28.75-7.84-45.21-7.84c-25.33,0-51.06,9.08-76.48,27
					c-20.52,14.46-40.81,34.68-60.32,60.1c-14.05,18.31-27.56,39.23-39.99,61.74l-14.16-15.22c-2.13-2.29-17.56-18.17-44.54-28.5
					c-3.68-17.16-9.22-35.44-18.34-51.77c-8.87-15.89-20.28-28.5-33.91-37.48c-16.01-10.55-34.61-15.88-55.28-15.88
					c-9.93,0-19.59,1.45-28.97,4.11c-3.32-16.89-13.39-37.4-33.9-52.42c-17.67-13.37-39.36-20.44-62.76-20.44
					c-40.53,0-81.44,21.58-109.45,57.73l-0.28,0.35l-0.27,0.37c-21.38,28.92-40.09,68.88-58.42,113.55
					c9.04-31.02,17.79-55.98,23.6-70.48l10.46-26.17l-21.21-18.56c-4.53-3.96-28.73-23.73-60.58-23.73
					c-22.03,0-42.1,9.84-56.83,27.79l-0.4,0.4l-11.65,11.66v4.42c-26.01,38.72-53.71,92.63-82.93,149.44
					c-5.88,11.45-11.8,22.95-17.73,34.41c9.95-39.2,23.78-81.53,41.49-126.84c1.58-4.05,2.79-7.15,3.7-9.61
					c4.46-10.45,17.16-46.33-2.86-77.52c-9.75-15.2-30.1-33.32-71.75-33.32c-28.64,0-53.76,7.35-78.05,14.45
					c-23.4,6.85-45.51,13.31-70.67,13.31c-25.04,0-34.05-7.26-36.17-9.39l-15.24-38.51l-39.27,20.8
					c-16.59,8.78-27.59,25.28-33.9,37.58c-8.42,16.43-13.05,34.59-13.05,51.13c0,25.77,10.99,51.17,30.16,69.69
					c14.6,14.1,40.74,30.91,82.34,30.91c19.21,0,39.25-3.21,58.72-8.08c-24.37,72.43-51.59,174.22-51.59,284.22
					c0,27.93,9.63,54.31,27.12,74.29c16.95,19.38,39.97,30.95,61.59,30.95c43.33,0,83.85-18.79,120.47-55.85
					c4.07,8.67,9.45,16.8,16.06,24.19c17.44,19.53,41.87,31.66,63.74,31.66c29.17,0,56.32-7.53,80.71-22.38
					c21.02-12.79,39.96-30.82,57.9-55.09c13.54-18.33,25.69-39.15,37.19-61.64c-0.09,2.86-0.14,5.68-0.14,8.45
					c0,35.92,7.41,65.31,22.02,87.36c9.22,13.92,21.13,24.72,35.39,32.11c14.3,7.42,30.64,11.19,48.54,11.19
					c17.44,0,35.01-5.52,52.21-16.42c13.03-8.25,25.71-19.38,38.78-34.03c3,5.19,6.41,9.95,10.22,14.28
					c11.61,13.18,32.83,28.9,68,28.9c30.1,0,59.04-14.06,85.98-41.76c0.14-0.14,0.28-0.28,0.41-0.42
					c18.18,30.34,46.2,49.45,78.17,49.45c10.98,0,21.86-1.59,32.64-4.76c-21.76,41.27-42.94,63.98-59.74,63.98
					c-13.83,0-23.97-4.21-31.89-13.26c-6.27-7.14-9.06-14.96-9.6-16.61l-15.51-70.72l-51.11,52.75c-8.95,8.95-15.22,22-19.16,39.89
					c-2.79,12.68-4.4,27.78-4.67,43.66c-0.35,21.44,1.53,63.43,18.2,103.68c10.39,25.09,24.81,45.26,42.87,59.94
					c22.03,17.91,48.32,27,78.14,27c39.55,0,75.66-13.61,107.34-40.44c25.93-21.93,48.74-52.44,69.74-93.21
					c36.26-70.37,61.46-160.77,85.83-248.21c0.92-3.32,1.85-6.65,2.79-9.97c4.89,22.85,13.32,42.57,25.21,58.96
					c22.15,30.53,55.56,47.33,94.09,47.33c39.99,0,80.12-18.39,119.88-54.84c3.96,6.47,8.63,12.4,14.02,17.74
					c19.92,19.78,47.59,29.82,82.24,29.82h25.74l10.56-23.47c6.2-13.79,12.38-27.56,18.52-41.25
					c31.65-70.59,61.55-137.27,88.05-189.86c11.1-22.04,20.78-39.98,29.38-54.43c3.02,9.08,6.91,18.29,12.18,27.05
					c7.83,12.99,17.8,23.29,29.64,30.6c13.71,8.45,29.52,12.75,47.02,12.75c59.7,0,96.21-34.79,100.18-38.75l11.66-11.66v-99.42
					L2729.33,1157.12z M1214.25,1490.86c-18.5,0-53.54-24.46-48.91-65.44c3.97-31.06,8.59-60.8,13.88-89.89
					c-40.32,83.29-93.2,155.33-165.24,155.33c-19.17,0-48.91-24.46-48.91-65.44c0-153.34,56.18-291.49,78-349.65
					c-38.34,16.53-85.27,33.71-124.92,33.71c-48.91,0-72.71-32.39-72.71-60.8c0-22.47,14.54-47.59,25.77-53.54
					c0,0,12.56,31.72,72.05,31.72c58.83,0,100.46-27.76,148.72-27.76c63.45,0,37.67,56.18,37.67,56.18
					c-8.59,23.8-80.63,190.36-64.77,327.19c69.41-95.18,140.13-267.69,196.31-346.35c0.67-0.67,0.67-0.67,0.67-1.32l1.98-1.99
					c8.59-11.24,18.5-14.54,27.1-14.54c18.52,0,34.38,13.88,34.38,13.88c-9.26,23.13-76.68,208.2-60.15,348.99
					c64.77-97.83,107.74-277.61,163.92-353.62c20.49-26.44,50.24-42.31,78-42.31c13.87,0,27.75,3.97,38.99,12.56
					c19.17,13.88,19.17,33.05,19.17,33.05s-33.05,14.54-68.08,61.47C1378.18,1252.25,1359,1490.86,1214.25,1490.86z M1809.81,1776.4
					c-113.02,0-109.06-184.4-87.25-206.22c0,0,15.2,59.48,79.98,59.48c76.01,0,123.6-140.78,169.21-275.62
					c-25.12,50.24-78,136.81-142.12,136.81c-33.04,0-60.15-42.3-60.15-93.85c0-3.85,0.09-7.77,0.29-11.76
					c-27.51,51.9-63.6,98.34-104.71,98.34c-51.56,0-60.15-50.89-52.23-113.02c-33.04,60.8-76.01,120.29-116.99,120.29
					c-160.61,0,5.29-436.89,136.83-436.89c54.19,0,66.75,55.53,72.7,97.16c32.4,4.64,50.24,23.8,50.24,23.8
					s-79.31,191.02-37.01,191.02c27.83,0,55.66-49.23,72.16-84.88c36.59-111.99,114.31-227.09,184.94-227.09
					c44.95,0,76.02,25.77,80.64,100.47c9.25-9.26,23.13-17.19,44.28-17.19c19.32,0,28.49,17.23,31.67,25.16
					c-3.89,7.15-7.64,14.49-11.26,21.98C2019.1,1346.15,2004.3,1776.4,1809.81,1776.4z M2744.07,1217.89c0,0-27.1,27.1-72.04,27.1
					c-68.08,0-50.24-103.77-74.69-103.77c-35.7,0-109.06,170.53-186.39,342.38c-47.59,0-72.71-24.45-72.71-72.71
					c0-8.06,0.75-16.28,2.12-24.63c-39.88,54.79-91.11,104.6-145.55,104.6c-52.21,0-84.61-42.96-84.61-118.31
					c0-41.14,16.37-107.41,45.75-168.88c5.9-12.37,12.34-24.56,19.27-36.3c37.22-63.02,88.81-113.4,150.46-113.4
					c128.22,0,48.91,264.38-107.07,264.38c-0.67,0-0.67,0-1.32,0c-3.97,34.38,3.97,59.49,33.71,59.49
					c49.94,0,120.37-95.75,140.5-124.68c30.37-63.81,59.76-129.08,45.23-188.63c0,0,10.7-3.08,24.6-3.08
					c25.8,0,62.64,10.59,62.64,71.16c0,13.88-1.98,27.76-4.62,40.98c27.76-54.19,70.06-119.63,112.36-119.63
					c79.98,0,27.1,148.05,77.33,148.05c15.2,0,35.03-7.92,35.03-7.92V1217.89z"/>
			</g>
			<g>
				<path class="st1" d="M2230.5,1272.75c-1.32,0-1.98,0.66-3.3,0.66c22.47-70.06,71.39-150.04,97.16-150.04
					C2362.03,1123.36,2277.43,1272.75,2230.5,1272.75z"/>
			</g>
		</g>
	</g>
	<g>
		<g>
			<path class="st1" d="M2770.24,1399.73c0,0,0,0-0.01,0.02c0.01-0.01,0.02-0.01,0.02-0.02c0,0,0-0.01,0.01-0.05
				C2770.25,1399.7,2770.25,1399.72,2770.24,1399.73z"/>
		</g>
		<path class="st1" d="M2770.26,1399.68c-0.01,0.04-0.01,0.05-0.01,0.05c0,0.01-0.01,0.01-0.02,0.02c0.01-0.02,0.01-0.02,0.01-0.02
			C2770.25,1399.72,2770.25,1399.7,2770.26,1399.68"/>
	</g>
	<g>
		<g>
			<g>
				<path class="st1" d="M2144.16,884.53c-7.34-4.5-12.77-11.7-15.02-20.37l-35.78-137.94c-3.29-12.7,1.12-26.3,11.24-34.65
					l101.79-84.01c8.7-7.18,20.36-9.56,31.19-6.36l137.1,40.52l0,0c11.73,3.47,20.7,13.02,23.43,24.93l31.52,137.5
					c3.26,14.22-2.91,28.89-15.37,36.5l-114.57,70c-7.47,4.57-16.3,6.06-24.87,4.2l-120.07-26.07
					C2150.93,887.95,2147.36,886.5,2144.16,884.53z M2369.76,658.35l-137.1-40.52c-5.29-1.56-10.98-0.4-15.23,3.11l-101.79,84.01
					c-4.94,4.08-7.1,10.72-5.49,16.92l35.78,137.94c1.58,6.08,6.37,10.68,12.51,12.02l120.07,26.07c4.18,0.91,8.49,0.18,12.15-2.05
					l114.57-70c6.08-3.72,9.1-10.88,7.51-17.83l-31.52-137.5C2379.87,664.71,2375.48,660.05,2369.76,658.35L2369.76,658.35z"/>
			</g>
		</g>
		<g>
			<g>
				<path class="st1" d="M2231.84,630.76c14.85,58.81,26.28,118.29,36.85,177.97c0,0-3.52-3.39-3.52-3.39
					c20.49,3.1,40.94,6.51,61.36,10.05c20.43,3.65,40.82,7.41,61.1,11.85c-20.71-1.47-41.34-3.64-61.96-5.9
					c-20.59-2.38-41.17-4.88-61.7-7.7c-1.83-0.26-3.21-1.67-3.52-3.39c-2.81-14.88-5.66-29.75-8.24-44.67
					C2244.29,720.8,2237,675.98,2231.84,630.76L2231.84,630.76z"/>
			</g>
		</g>
		<g>
			<g>
				<path class="st1" d="M2266.98,813.1l-92.93,56.51l88.14-63.73C2267.05,802.51,2271.98,809.9,2266.98,813.1L2266.98,813.1z"/>
			</g>
		</g>
		<g>
			<g>
				<g>
					
						<ellipse transform="matrix(0.5228 -0.8525 0.8525 0.5228 440.6534 2323.0283)" class="st1" cx="2295.23" cy="767.93" rx="10.14" ry="13.11"/>
				</g>
			</g>
			<g>
				<g>
					
						<ellipse transform="matrix(0.5228 -0.8525 0.8525 0.5228 452.3528 2361.0081)" class="st1" cx="2335" cy="776.47" rx="10.14" ry="13.11"/>
				</g>
			</g>
			<g>
				<g>
					
						<ellipse transform="matrix(0.5228 -0.8525 0.8525 0.5228 464.0523 2398.9878)" class="st1" cx="2374.77" cy="785.01" rx="10.14" ry="13.11"/>
				</g>
			</g>
		</g>
		<g>
			<g>
				<g>
					
						<ellipse transform="matrix(0.5228 -0.8525 0.8525 0.5228 520.1943 2256.3328)" class="st1" cx="2275.43" cy="663.53" rx="10.14" ry="13.11"/>
				</g>
			</g>
			<g>
				<g>
					
						<ellipse transform="matrix(0.5228 -0.8525 0.8525 0.5228 531.8896 2294.3079)" class="st1" cx="2315.2" cy="672.07" rx="10.13" ry="13.11"/>
				</g>
			</g>
			<g>
				<g>
					
						<ellipse transform="matrix(0.5228 -0.8525 0.8525 0.5228 543.5919 2332.3279)" class="st1" cx="2355" cy="680.63" rx="10.14" ry="13.11"/>
				</g>
			</g>
		</g>
		<g>
			<g>
				
					<ellipse transform="matrix(0.5228 -0.8525 0.8525 0.5228 389.5139 2260.0752)" class="st1" cx="2213.43" cy="782.13" rx="19.75" ry="15.96"/>
			</g>
		</g>
		<g>
			<g>
				
					<ellipse transform="matrix(0.5228 -0.8525 0.8525 0.5228 407.3324 2168.3005)" class="st1" cx="2140.37" cy="720.33" rx="19.75" ry="15.96"/>
			</g>
		</g>
		<g>
			<g>
				
					<ellipse transform="matrix(0.133 -0.9911 0.9911 0.133 1149.3712 2980.3713)" class="st1" cx="2278.27" cy="833.2" rx="8.45" ry="14.26"/>
			</g>
		</g>
		<g>
			<g>
				
					<ellipse transform="matrix(0.133 -0.9911 0.9911 0.133 1189.0347 3058.3667)" class="st1" cx="2342.68" cy="849.53" rx="8.45" ry="14.26"/>
			</g>
		</g>
		<g>
			<g>
				
					<ellipse transform="matrix(0.133 -0.9911 0.9911 0.133 1126.1793 3009.2947)" class="st1" cx="2283.21" cy="860.92" rx="8.45" ry="14.26"/>
			</g>
		</g>
		<g>
			<g>
				<path class="st1" d="M2235.66,872.44c-0.52,3.88-6.25,6.31-12.79,5.43s-11.43-4.73-10.91-8.61c0.52-3.88,6.25-6.31,12.79-5.43
					C2231.29,864.71,2236.18,868.57,2235.66,872.44z"/>
			</g>
		</g>
		<g>
			<g>
				<path class="st1" d="M2296.46,885.75c-0.45,3.38-5.45,5.51-11.17,4.74c-5.71-0.77-9.97-4.13-9.52-7.52
					c0.45-3.38,5.45-5.51,11.17-4.74C2292.65,879,2296.91,882.37,2296.46,885.75z"/>
			</g>
		</g>
		<g>
			<g>
				<g>
					<path class="st1" d="M1730.01,917.58c-9.82-6.02-15.54-17.18-14.64-28.72l9.08-115.76c0.8-10.24,6.62-19.38,15.56-24.44
						l109.46-61.97l0,0c9.69-5.48,21.62-5.32,31.15,0.43l106.26,64.12c11.45,6.83,17.07,20.19,14.18,33.16l-25.76,115.28
						c-1.74,7.79-6.35,14.51-12.99,18.94l-89.9,60.02c-9.74,6.5-22.13,6.97-32.33,1.2l-109.14-61.7
						C1730.64,917.96,1730.33,917.77,1730.01,917.58z M1858.02,701.78l-109.46,61.97c-3.92,2.22-6.47,6.22-6.82,10.71l-9.08,115.76
						c-0.41,5.22,2.24,10.19,6.83,12.83l109.14,61.7c4.47,2.52,9.89,2.32,14.16-0.53l89.9-60.02c2.91-1.94,4.92-4.89,5.69-8.3
						l25.75-115.27c1.26-5.65-1.2-11.45-6.13-14.47c-0.03-0.02-0.06-0.03-0.09-0.05l-106.26-64.12
						C1867.5,699.45,1862.27,699.38,1858.02,701.78L1858.02,701.78z"/>
				</g>
			</g>
			<g>
				<g>
					<path class="st1" d="M1747.14,772.92c49.29,25.52,96.79,54.03,143.87,83.32c0,0-4.75,0.26-4.75,0.26
						c15.26-11.65,30.71-23.03,46.23-34.33c15.61-11.21,31.27-22.33,47.35-32.89c-14.24,12.93-28.92,25.32-43.67,37.64
						c-14.81,12.21-29.69,24.33-44.78,36.2c-1.41,1.1-3.31,1.15-4.75,0.26c-11.85-7.17-23.72-14.31-35.45-21.67
						C1815.87,819.73,1780.94,797.25,1747.14,772.92L1747.14,772.92z"/>
				</g>
			</g>
			<g>
				<g>
					<path class="st1" d="M1893.09,860.59l-21.58,93.25l13.05-94.82C1885.51,853.15,1894.3,854.75,1893.09,860.59L1893.09,860.59z"
						/>
				</g>
			</g>
			<g>
				<g>
					
						<ellipse transform="matrix(0.5228 -0.8525 0.8525 0.5228 175.8448 2043.4956)" class="st1" cx="1913.15" cy="864.69" rx="14.63" ry="6.12"/>
				</g>
			</g>
			<g>
				<g>
					
						<ellipse transform="matrix(0.5228 -0.8525 0.8525 0.5228 234.6655 2066.6379)" class="st1" cx="1963.23" cy="823.72" rx="14.63" ry="6.12"/>
				</g>
			</g>
			<g>
				<g>
					
						<ellipse transform="matrix(0.5228 -0.8525 0.8525 0.5228 113.4591 2061.8108)" class="st1" cx="1898.31" cy="929.57" rx="14.63" ry="6.12"/>
				</g>
			</g>
			<g>
				<g>
					
						<ellipse transform="matrix(0.5228 -0.8525 0.8525 0.5228 172.2791 2084.9521)" class="st1" cx="1948.4" cy="888.6" rx="14.63" ry="6.12"/>
				</g>
			</g>
			<g>
				<g>
					
						<ellipse transform="matrix(0.9975 -0.0711 0.0711 0.9975 -49.8648 134.9851)" class="st1" cx="1870.91" cy="767.83" rx="18.94" ry="16.53"/>
				</g>
			</g>
			<g>
				<g>
					<g>
						
							<ellipse transform="matrix(0.9992 -0.0388 0.0388 0.9992 -30.2229 68.8144)" class="st1" cx="1758.14" cy="813.21" rx="10.42" ry="11.95"/>
					</g>
				</g>
				<g>
					<g>
						
							<ellipse transform="matrix(0.9992 -0.0388 0.0388 0.9992 -32.3581 72.6047)" class="st1" cx="1855.4" cy="870.42" rx="10.42" ry="11.95"/>
					</g>
				</g>
				<g>
					<g>
						
							<ellipse transform="matrix(0.9992 -0.0388 0.0388 0.9992 -33.1577 68.7131)" class="st1" cx="1754.69" cy="889.09" rx="10.42" ry="11.95"/>
					</g>
				</g>
				<g>
					<g>
						
							<ellipse transform="matrix(0.9992 -0.0388 0.0388 0.9992 -35.1269 72.2267)" class="st1" cx="1844.12" cy="941.53" rx="10.42" ry="11.95"/>
					</g>
				</g>
				<g>
					<g>
						
							<ellipse transform="matrix(0.9992 -0.0388 0.0388 0.9992 -32.6109 70.5518)" class="st1" cx="1801.81" cy="875.66" rx="10.42" ry="11.95"/>
					</g>
				</g>
			</g>
		</g>
	</g>
</g>
</svg>
